# xmcd CD database file
#
# Track frame offsets:
#	150
#	19970
#	42141
#	52774
#	71047
#	84330
#	101858
#	120895
#	136477
#	158478
#	175009
#	193404
#	209602
#
# Disc length: 3102 seconds
#
# Revision: 0
# Processed by: cddbd v1.4PL0 Copyright (c) Steve Scherf et al.
# Submitted via: CDex 1.50beta9
#
DISCID=ad0c1c0d
DTITLE=Cam Newton - Short Films
DYEAR=1995
DGENRE=New Age
TTITLE0=Spirit of the Pacific Rim
TTITLE1=Sea of Cortez
TTITLE2=To Fight the Good Fight
TTITLE3=Details At Eleven
TTITLE4=Ochoco
TTITLE5=Hide and Seek in the Tall Grass
TTITLE6=Mr. Pachelbel Takes a Vacation
TTITLE7=Global Village
TTITLE8=Across the Distance
TTITLE9=There Was a Time
TTITLE10=One Blue Pearl (Earth)
TTITLE11=The Mystery in Dreams
TTITLE12=Rubatoland
EXTD=YEAR: 1995
EXTT0=
EXTT1=
EXTT2=
EXTT3=
EXTT4=
EXTT5=
EXTT6=
EXTT7=
EXTT8=
EXTT9=
EXTT10=
EXTT11=
EXTT12=
PLAYORDER=
